<?xml version="1.0" standalone="no"?>
<!DOCTYPE svg PUBLIC "-//W3C//DTD SVG 20010904//EN"
 "http://www.w3.org/TR/2001/REC-SVG-20010904/DTD/svg10.dtd">
<svg version="1.0" xmlns="http://www.w3.org/2000/svg"
 width="612.000000pt" height="612.000000pt" viewBox="0 0 612.000000 612.000000"
 preserveAspectRatio="xMidYMid meet">

<g transform="translate(0.000000,612.000000) scale(0.100000,-0.100000)"
fill="#000000" stroke="none">
<path d="M4075 4548 c-2 -7 -3 -29 -2 -48 l2 -35 -105 -5 -105 -5 47 -35 47
-35 1 -88 c0 -60 5 -98 16 -119 l16 -31 -53 -53 c-29 -29 -64 -58 -79 -64 -17
-7 -39 -34 -63 -78 -20 -37 -69 -105 -109 -152 l-74 -85 -76 -6 c-42 -4 -80
-9 -85 -12 -6 -4 -34 14 -62 38 -29 25 -95 70 -146 101 l-94 56 -71 -39 -72
-38 6 -57 6 -58 -83 0 -83 0 -50 -52 c-28 -29 -54 -61 -57 -70 -6 -16 -21 -18
-122 -18 l-116 0 -17 31 c-33 60 -29 58 -167 65 -121 5 -135 4 -201 -19 -64
-22 -76 -24 -121 -13 -64 14 -87 35 -103 93 -9 31 -29 61 -62 94 -35 35 -48
56 -48 77 0 44 -29 53 -131 37 -46 -7 -84 -14 -84 -15 0 -1 -13 -3 -30 -5 -36
-5 -58 -32 -52 -64 7 -35 -23 -88 -58 -103 -16 -7 -55 -11 -86 -9 -34 1 -60
-2 -63 -8 -4 -6 -22 -11 -39 -11 -18 -1 -43 -7 -57 -15 -15 -8 -53 -14 -92
-15 -80 0 -94 -15 -84 -87 6 -45 -13 -83 -41 -83 -17 0 -28 -49 -15 -62 8 -8
15 -8 27 2 13 10 15 9 15 -7 0 -10 -7 -28 -15 -39 -21 -28 -19 -47 5 -39 10 3
28 2 38 -4 22 -12 76 -19 143 -20 52 -1 58 -15 26 -62 -10 -15 -15 -34 -11
-43 8 -20 61 -49 74 -41 5 3 22 -1 38 -9 16 -8 32 -13 35 -9 3 3 22 2 42 -1
25 -5 39 -15 50 -36 17 -32 64 -69 97 -75 46 -9 65 -70 28 -93 -28 -17 -25
-42 8 -54 16 -6 33 -23 39 -37 7 -21 22 -30 72 -45 34 -10 68 -24 75 -31 6 -7
27 -20 44 -29 18 -9 40 -32 49 -50 13 -29 38 -49 102 -86 10 -6 8 -16 -10 -49
l-24 -42 25 -19 c52 -41 60 -52 49 -71 -7 -15 -6 -19 6 -19 8 0 15 -4 15 -10
0 -5 15 -12 34 -16 19 -3 49 -17 67 -30 18 -13 39 -24 46 -24 7 0 13 -4 13
-10 0 -5 7 -10 15 -10 35 0 59 -38 61 -98 2 -66 13 -99 43 -126 11 -11 21 -24
21 -30 1 -19 38 -56 57 -56 26 0 63 -43 63 -73 0 -26 16 -37 57 -37 16 0 27
-7 30 -20 5 -19 71 -60 98 -60 8 0 15 -4 15 -10 0 -16 30 -12 36 5 4 8 12 15
20 15 8 0 14 5 14 10 0 6 7 10 15 10 9 0 21 11 27 25 13 28 26 32 34 10 4 -10
20 -15 46 -15 25 0 50 -8 65 -20 17 -13 34 -18 47 -14 28 8 76 61 76 83 0 14
6 17 33 13 17 -3 36 -11 40 -18 4 -8 16 -14 25 -14 14 0 17 -7 14 -33 -3 -28
0 -35 22 -45 14 -6 26 -18 26 -27 0 -8 7 -15 15 -15 9 0 18 -7 21 -15 4 -8 15
-15 25 -15 14 0 19 -7 19 -27 0 -26 6 -30 65 -48 65 -19 70 -25 66 -73 -2 -23
16 -28 54 -13 15 6 24 3 35 -15 l16 -23 19 30 c11 16 25 29 31 29 6 0 17 7 24
15 18 21 73 19 114 -6 31 -18 40 -19 71 -9 19 6 40 21 46 33 12 21 12 21 35
-7 13 -15 24 -33 24 -40 0 -10 64 -46 83 -46 4 0 7 9 7 19 0 29 62 62 133 71
34 4 81 15 104 25 41 16 43 16 69 -4 19 -15 41 -21 80 -21 l52 0 151 157 150
158 131 58 c72 32 137 57 144 54 6 -3 20 1 31 9 25 19 36 18 33 -3 -2 -13 3
-17 19 -15 20 3 21 0 16 -32 -4 -29 -1 -39 22 -62 l28 -28 10 25 c5 14 11 19
14 12 3 -7 16 -13 29 -13 23 0 24 1 9 24 -12 18 -15 46 -14 115 2 55 -2 96 -9
103 -19 19 -85 25 -117 12 -45 -20 -55 -17 -55 14 0 20 -8 32 -30 45 -16 10
-30 26 -30 36 0 9 -7 26 -15 37 -8 10 -15 30 -15 44 0 14 -6 45 -14 70 -11 37
-11 52 0 82 11 33 11 38 -10 57 -12 12 -32 21 -44 21 -12 0 -29 11 -38 25 -9
14 -24 25 -33 25 -9 0 -22 13 -28 30 -9 24 -17 30 -40 30 -19 0 -37 10 -56 31
-15 17 -27 34 -27 38 0 4 -12 13 -26 19 -18 9 -24 17 -19 31 9 29 -3 46 -67
96 -55 44 -64 48 -116 48 -32 1 -60 5 -64 11 -3 5 -26 12 -50 15 -39 5 -43 9
-46 35 -3 23 3 36 26 56 31 27 42 56 29 78 -5 7 -4 12 2 12 6 0 10 10 8 23 -2
19 3 22 38 25 79 5 109 2 118 -13 10 -18 57 -10 70 12 4 7 16 13 26 13 10 0
27 10 38 23 19 21 20 28 11 162 -5 77 -11 146 -13 153 -3 6 -20 12 -39 12
l-34 0 5 43 c3 23 12 49 19 58 24 28 17 92 -13 126 -69 74 -111 122 -124 140
-8 11 -32 29 -53 40 l-39 20 -29 144 -30 144 17 95 c9 52 21 100 27 107 8 10
-9 13 -81 13 -64 0 -93 -4 -96 -12z"/>
</g>
</svg>
