<?xml version="1.0" standalone="no"?>
<!DOCTYPE svg PUBLIC "-//W3C//DTD SVG 20010904//EN"
 "http://www.w3.org/TR/2001/REC-SVG-20010904/DTD/svg10.dtd">
<svg version="1.0" xmlns="http://www.w3.org/2000/svg"
 width="900.000000pt" height="729.000000pt" viewBox="0 0 900.000000 729.000000"
 preserveAspectRatio="xMidYMid meet">
<metadata>
Created by potrace 1.10, written by Peter Selinger 2001-2011
</metadata>
<g transform="translate(0.000000,729.000000) scale(0.100000,-0.100000)"
fill="#000000" stroke="none">
<path d="M3833 6592 c-9 -22 16 -32 79 -32 31 0 60 -5 63 -11 4 -6 24 -9 46
-8 21 2 41 0 45 -4 10 -9 54 -9 54 1 0 4 -12 18 -25 31 -21 19 -32 22 -68 17
-23 -3 -75 0 -115 8 -63 11 -75 11 -79 -2z"/>
<path d="M4130 6511 c0 -5 6 -14 14 -20 7 -6 16 -33 19 -60 8 -68 24 -91 62
-88 l30 2 -1 -57 -2 -58 69 0 c37 0 70 -4 73 -8 6 -10 -47 -52 -64 -52 -13 0
-13 -57 0 -65 15 -9 12 -41 -5 -55 -20 -16 -17 -106 3 -102 6 1 17 3 23 5 6 1
18 -17 27 -41 15 -39 15 -44 -2 -72 -15 -26 -16 -35 -4 -66 l13 -37 -75 -68
c-41 -38 -78 -69 -82 -69 -5 0 -8 -7 -8 -15 0 -10 10 -15 34 -15 39 0 86 -33
86 -60 0 -32 43 -90 65 -87 18 2 20 9 19 67 0 36 -2 83 -3 105 -4 68 16 218
33 251 24 46 41 57 89 58 40 1 42 2 39 31 -1 17 -2 41 -2 54 0 13 -6 31 -12
39 -7 8 -15 49 -18 91 -4 64 -8 76 -24 79 -10 2 -40 17 -66 33 -26 16 -58 29
-72 29 -30 0 -71 41 -62 63 4 11 -7 27 -32 49 -50 42 -72 65 -109 111 -28 34
-55 48 -55 28z"/>
<path d="M3088 6438 c-6 -13 -11 -49 -10 -80 l2 -57 -51 -41 c-44 -35 -57 -40
-83 -35 -37 8 -56 29 -57 64 -1 21 -2 22 -6 6 -10 -40 -22 -39 -58 2 -32 37
-79 62 -93 49 -3 -3 24 -36 59 -73 133 -140 187 -164 269 -120 75 40 83 44
120 60 68 29 135 47 175 47 22 0 56 5 75 10 73 21 231 39 260 28 30 -10 72
-58 84 -95 8 -24 40 -31 51 -12 9 13 -30 104 -61 145 -13 17 -24 40 -24 52 0
30 -12 33 -48 12 -21 -13 -41 -18 -61 -14 -18 4 -42 0 -60 -9 -17 -9 -33 -11
-36 -6 -3 5 -30 8 -60 6 -44 -2 -57 2 -69 18 -16 22 -15 22 -32 -32 -10 -36
-118 0 -168 56 -15 17 -22 19 -34 9 -12 -10 -18 -8 -32 10 -23 28 -36 28 -52
0z"/>
<path d="M4054 5924 c3 -9 6 -18 6 -20 0 -2 7 -4 15 -4 20 0 19 26 -1 34 -24
9 -27 8 -20 -10z"/>
<path d="M2450 5315 c0 -8 7 -15 15 -15 8 0 15 7 15 15 0 8 -7 15 -15 15 -8 0
-15 -7 -15 -15z"/>
<path d="M3770 5320 c0 -14 42 -70 52 -70 17 0 7 36 -16 58 -26 24 -36 28 -36
12z"/>
<path d="M2425 5261 c-3 -5 -1 -12 5 -16 12 -7 30 2 30 16 0 12 -27 12 -35 0z"/>
<path d="M4848 5084 c-4 -3 -4 -13 -1 -21 3 -8 -2 -29 -12 -47 -19 -36 -14
-73 7 -59 7 4 35 8 63 8 39 0 50 4 53 18 2 11 -3 17 -15 17 -23 0 -50 31 -55
62 -3 22 -27 36 -40 22z"/>
<path d="M4990 4934 c0 -8 49 -54 57 -54 3 0 11 -7 18 -17 7 -10 19 -14 29
-10 19 8 13 27 -9 27 -8 0 -29 14 -47 30 -31 29 -48 37 -48 24z"/>
<path d="M5175 4840 c-3 -5 -4 -10 -1 -10 2 0 11 -3 20 -6 11 -4 16 -1 16 10
0 18 -25 22 -35 6z"/>
<path d="M5280 4720 c0 -5 3 -10 8 -10 4 0 18 -16 31 -35 13 -19 31 -37 40
-40 10 -3 24 -17 31 -30 16 -30 26 -32 33 -6 6 24 -17 59 -47 72 -11 5 -38 20
-58 34 -21 14 -38 21 -38 15z"/>
<path d="M3450 4678 c0 -13 12 -45 25 -73 29 -58 33 -129 10 -162 -10 -14 -13
-32 -9 -47 7 -30 -6 -56 -56 -107 -21 -22 -48 -60 -60 -84 -14 -28 -29 -45
-45 -49 -20 -5 -25 -13 -25 -36 0 -23 -6 -33 -25 -42 -14 -6 -25 -19 -25 -29
0 -18 115 -129 133 -129 6 0 19 -7 29 -16 10 -10 35 -17 58 -17 35 0 40 -3 40
-22 0 -15 16 -36 45 -59 31 -26 45 -45 45 -62 0 -27 33 -99 51 -110 6 -3 17
-22 25 -40 12 -29 19 -34 48 -34 18 0 39 7 46 15 7 8 16 15 21 15 17 0 9 -23
-15 -45 -35 -33 -40 -58 -15 -81 52 -47 72 -94 76 -188 4 -64 10 -95 20 -103
9 -7 12 -19 8 -32 -7 -22 -4 -24 47 -35 21 -5 27 -12 25 -28 -1 -11 4 -23 11
-25 6 -3 12 2 12 11 0 12 11 16 48 16 26 0 52 4 58 8 16 10 44 68 44 91 0 11
5 23 10 26 13 8 13 89 0 129 -5 17 -16 69 -25 115 -8 46 -22 93 -30 104 -8 12
-15 28 -15 35 0 7 -13 27 -29 43 -16 16 -31 39 -33 52 -4 27 -39 35 -58 12 -7
-8 -16 -15 -21 -15 -18 0 -8 21 23 48 25 24 30 33 24 56 -10 39 -33 44 -62 12
-28 -29 -74 -36 -74 -10 0 8 25 39 55 68 56 53 68 83 40 106 -11 9 -15 35 -15
101 l0 89 -39 43 c-21 23 -50 66 -65 95 -14 28 -31 52 -36 52 -6 0 -10 17 -10
38 0 29 -7 46 -31 70 -26 27 -31 38 -26 66 3 20 0 45 -9 61 -8 15 -14 35 -14
44 0 10 -6 26 -14 36 -13 17 -17 18 -55 5 -40 -13 -42 -12 -69 13 -36 34 -72
36 -72 5z m286 -952 c17 -12 22 -12 39 0 26 19 75 18 75 -1 0 -8 -6 -15 -14
-15 -7 0 -19 -7 -26 -15 -19 -23 -71 -28 -112 -10 -35 14 -47 33 -31 48 11 12
48 8 69 -7z m144 -53 c-1 -14 -27 -43 -39 -43 -12 0 -15 32 -4 43 9 9 43 9 43
0z m117 -115 c-2 -13 -4 -5 -4 17 -1 22 1 32 4 23 2 -10 2 -28 0 -40z"/>
<path d="M4240 4560 c-8 -5 -32 -10 -54 -10 -46 0 -106 -34 -106 -60 0 -33
161 -44 205 -14 11 8 27 14 37 14 26 0 30 16 13 50 -12 24 -22 30 -48 30 -17
0 -39 -5 -47 -10z"/>
<path d="M5420 4551 c0 -12 5 -21 10 -21 6 0 10 6 10 14 0 8 -4 18 -10 21 -5
3 -10 -3 -10 -14z"/>
<path d="M5390 4483 c-6 -16 -20 -44 -31 -63 -10 -19 -19 -47 -19 -62 0 -23 4
-27 22 -25 39 4 34 -34 -8 -60 -41 -27 -76 -29 -94 -8 -13 16 -40 20 -40 7 0
-12 44 -52 57 -52 18 0 56 -49 82 -107 6 -13 15 -23 21 -23 15 0 12 43 -5 66
-19 25 -19 49 0 85 8 16 22 42 30 58 13 25 14 38 4 76 -9 35 -9 52 0 71 13 30
14 64 2 64 -5 0 -14 -12 -21 -27z"/>
<path d="M5798 4129 c-27 -15 -22 -26 22 -54 40 -25 76 -78 65 -95 -3 -5 5
-14 17 -21 13 -7 28 -19 35 -28 6 -9 15 -13 19 -8 4 4 -7 28 -24 52 -18 25
-32 58 -32 73 -1 52 -65 103 -102 81z"/>
<path d="M5990 3816 c0 -8 4 -18 10 -21 5 -3 17 -21 26 -41 9 -19 30 -42 46
-52 32 -18 46 -56 31 -80 -5 -9 -31 -28 -58 -42 -58 -31 -64 -43 -31 -58 20
-9 33 -8 60 3 20 8 56 15 81 15 32 0 45 4 45 14 0 33 -74 154 -125 203 -30 30
-55 58 -55 63 0 6 -7 10 -15 10 -8 0 -15 -6 -15 -14z"/>
<path d="M4950 3786 c0 -9 5 -16 10 -16 6 0 10 -7 10 -15 0 -8 7 -15 15 -15
21 0 18 11 -10 39 -20 18 -25 20 -25 7z"/>
<path d="M6950 3505 c-21 -22 -25 -38 -27 -95 -1 -62 0 -70 19 -76 42 -13 89
86 72 154 -11 45 -32 51 -64 17z"/>
<path d="M5152 3488 c6 -18 28 -21 28 -4 0 9 -7 16 -16 16 -9 0 -14 -5 -12
-12z"/>
<path d="M5180 3448 c0 -7 4 -19 9 -27 11 -17 23 1 15 23 -7 19 -24 21 -24 4z"/>
<path d="M5487 3074 c-12 -12 -8 -51 7 -63 8 -7 17 -22 20 -34 3 -15 18 -26
46 -35 59 -18 141 -82 135 -104 -10 -31 76 -56 88 -25 9 25 -20 77 -44 77 -14
0 -51 29 -102 80 -46 46 -89 80 -100 80 -11 0 -25 7 -31 16 -6 8 -15 12 -19 8z"/>
<path d="M6583 3062 c-50 -19 -57 -42 -13 -42 17 0 45 -7 62 -16 37 -19 51 -9
46 37 -2 28 -7 34 -28 36 -14 1 -44 -5 -67 -15z"/>
<path d="M6170 3007 c0 -23 9 -42 29 -63 15 -16 36 -54 46 -84 26 -80 55 -130
80 -142 13 -6 28 -20 33 -32 8 -16 11 -17 11 -5 1 18 -13 47 -43 91 -10 15
-22 46 -27 69 -6 23 -23 59 -39 80 -17 20 -30 43 -30 52 0 17 -38 67 -51 67
-5 0 -9 -15 -9 -33z"/>
<path d="M5812 2793 c2 -11 12 -17 23 -16 10 1 31 -5 47 -13 34 -18 101 -19
96 -2 -3 7 -19 15 -37 19 -18 4 -38 12 -44 18 -6 6 -28 11 -50 11 -31 0 -38
-3 -35 -17z"/>
<path d="M6380 2622 c0 -16 -7 -37 -15 -48 -8 -10 -15 -29 -15 -41 0 -19 -5
-23 -34 -23 -19 0 -37 -4 -40 -8 -5 -8 45 -52 58 -52 3 0 19 -13 36 -30 22
-22 44 -31 82 -36 40 -5 59 -14 77 -35 24 -28 49 -82 58 -129 7 -40 39 -77 54
-63 9 9 8 27 -2 80 -11 53 -22 79 -54 118 -23 28 -54 54 -71 59 -82 25 -104
55 -104 144 0 33 -3 67 -6 76 -10 26 -24 18 -24 -12z"/>
<path d="M7627 2414 c-17 -18 -4 -25 41 -22 26 2 47 8 47 13 0 12 -77 19 -88
9z"/>
<path d="M7104 2115 c-4 -9 7 -34 22 -58 16 -23 31 -51 34 -62 4 -14 16 -21
40 -23 19 -2 42 -9 50 -17 21 -18 100 -14 130 8 39 27 17 51 -54 57 -50 5 -61
10 -93 44 -33 35 -86 66 -113 66 -6 0 -13 -7 -16 -15z"/>
<path d="M7515 2001 c-46 -7 -95 -37 -95 -57 0 -8 -5 -23 -12 -34 -10 -16 -9
-23 7 -40 16 -17 27 -21 55 -16 26 4 39 1 57 -16 43 -41 16 -101 -51 -113 -27
-6 -38 -13 -42 -31 -4 -17 -18 -27 -45 -36 -31 -9 -41 -18 -47 -42 -6 -22 -15
-32 -33 -34 -33 -5 -59 -30 -59 -58 0 -30 -25 -54 -56 -54 -27 0 -43 -25 -27
-41 14 -14 95 32 110 62 16 32 51 59 75 59 41 0 93 37 112 81 11 23 34 58 53
76 18 19 33 36 33 39 0 3 7 13 16 21 10 10 13 24 9 37 -17 52 -27 158 -16 169
12 12 15 38 4 35 -5 0 -26 -4 -48 -7z"/>
<path d="M7085 1860 c-10 -12 -15 -26 -11 -37 6 -15 10 -13 31 12 13 17 24 33
25 38 0 14 -27 7 -45 -13z"/>
<path d="M7795 1869 c-10 -15 3 -25 16 -12 7 7 7 13 1 17 -6 3 -14 1 -17 -5z"/>
<path d="M8238 1663 c-20 -43 -16 -53 22 -53 16 0 32 -5 36 -11 3 -6 15 -8 28
-4 11 4 53 8 92 10 70 3 72 3 115 -36 48 -43 55 -45 82 -25 23 18 22 28 -5 46
-66 42 -137 70 -184 70 -17 0 -43 9 -57 20 -16 13 -40 20 -69 20 -41 0 -45 -3
-60 -37z"/>
<path d="M5785 1461 c-7 -22 0 -41 16 -41 11 0 12 30 0 49 -7 11 -10 9 -16 -8z"/>
<path d="M8365 729 c-4 -5 -18 -14 -31 -19 -27 -11 -30 -26 -12 -65 13 -28 34
-31 62 -10 11 8 28 15 38 15 35 0 33 31 -3 61 -38 32 -45 34 -54 18z"/>
<path d="M8314 488 c-6 -7 -18 -29 -28 -49 -54 -103 -69 -116 -167 -136 -28
-5 -89 37 -89 62 0 24 -17 25 -43 5 -16 -13 -40 -20 -66 -20 -33 0 -44 -5 -62
-29 -12 -17 -44 -39 -71 -51 -42 -18 -48 -23 -37 -36 10 -12 7 -20 -20 -44
-31 -29 -31 -30 -16 -59 8 -17 15 -37 15 -46 0 -19 17 -19 55 1 25 13 37 13
71 4 46 -13 107 -10 263 13 99 15 120 25 121 55 0 6 4 12 10 12 5 0 13 12 16
26 4 14 21 45 39 69 49 64 53 74 57 155 3 70 2 75 -18 78 -11 2 -25 -3 -30
-10z"/>
</g>
</svg>
