<?xml version="1.0" standalone="no"?>
<!DOCTYPE svg PUBLIC "-//W3C//DTD SVG 20010904//EN"
 "http://www.w3.org/TR/2001/REC-SVG-20010904/DTD/svg10.dtd">
<svg version="1.0" xmlns="http://www.w3.org/2000/svg"
 width="1350.000000pt" height="447.000000pt" viewBox="0 0 1350.000000 447.000000"
 preserveAspectRatio="xMidYMid meet">
<metadata>
Created by potrace 1.10, written by Peter Selinger 2001-2011
</metadata>
<g transform="translate(0.000000,447.000000) scale(0.100000,-0.100000)"
fill="#000000" stroke="none">
<path d="M12060 4457 c0 -7 -15 -20 -32 -28 -31 -13 -33 -18 -36 -66 -2 -41 0
-53 11 -53 8 0 17 6 20 14 3 7 19 16 36 19 23 5 34 15 46 43 8 20 15 47 15 60
0 20 -5 24 -30 24 -18 0 -30 -5 -30 -13z"/>
<path d="M11750 4194 c-6 -15 -20 -41 -32 -57 -13 -17 -23 -38 -25 -47 -10
-80 -16 -93 -53 -130 -22 -22 -40 -49 -40 -61 0 -12 -21 -41 -47 -68 -27 -25
-63 -63 -81 -84 -18 -20 -41 -37 -52 -37 -23 0 -40 -28 -40 -69 0 -19 -16 -53
-44 -93 -24 -35 -49 -82 -56 -104 -14 -45 -45 -82 -77 -95 -18 -7 -23 -16 -23
-43 0 -27 -9 -45 -40 -77 l-40 -42 -57 7 c-31 4 -62 11 -69 17 -28 23 -109
-62 -134 -140 -13 -42 -13 -44 11 -62 28 -22 50 -24 67 -7 9 9 16 9 29 -4 14
-15 15 -20 1 -50 -9 -18 -19 -43 -22 -54 -4 -12 -34 -47 -67 -79 -56 -54 -62
-57 -97 -51 -98 17 -114 3 -67 -58 32 -42 46 -87 46 -146 -1 -65 18 -120 52
-157 33 -36 25 -48 -27 -39 -42 8 -137 58 -143 75 -2 9 -13 35 -24 59 -11 25
-19 65 -19 96 0 62 -33 146 -56 146 -51 0 -127 -108 -105 -149 6 -11 11 -46
11 -79 0 -41 5 -63 15 -72 19 -15 19 -63 2 -98 -8 -15 -21 -42 -30 -60 -9 -19
-17 -39 -17 -46 0 -20 -79 -86 -104 -86 -3 0 -35 38 -72 85 -36 47 -79 92 -95
101 -16 8 -29 20 -30 27 -3 48 -34 111 -69 141 -40 33 -104 51 -144 39 -30 -9
-31 -11 -28 -58 2 -40 -4 -64 -32 -123 -68 -140 -148 -237 -274 -331 -52 -39
-87 -74 -96 -94 -24 -57 -101 -160 -179 -241 -43 -44 -77 -87 -77 -96 0 -42
-88 -78 -265 -108 -16 -2 -36 -10 -44 -16 -8 -6 -41 -14 -75 -18 -117 -13
-201 -29 -230 -44 -16 -8 -39 -14 -51 -14 -13 0 -38 -6 -56 -14 -19 -8 -62
-17 -97 -21 -53 -6 -61 -9 -51 -21 9 -11 9 -18 0 -27 -9 -9 -19 -7 -45 7 -32
17 -36 17 -57 2 -13 -9 -30 -16 -38 -16 -8 0 -33 -16 -57 -36 l-44 -35 1 -100
c1 -110 6 -119 68 -119 42 0 43 34 1 55 -41 21 -38 31 9 27 21 -2 42 1 45 7 4
6 13 11 21 11 11 0 11 -5 -2 -29 -16 -28 -16 -29 25 -78 46 -54 50 -63 27 -63
-8 0 -17 -11 -21 -24 -10 -40 -35 -54 -119 -65 -138 -19 -145 -21 -145 -36 0
-10 -10 -15 -30 -15 -24 0 -31 -5 -36 -27 -4 -16 -17 -43 -31 -60 -21 -28 -22
-36 -11 -55 6 -13 12 -49 13 -80 l1 -58 -38 6 c-35 6 -38 4 -51 -27 -17 -40
-12 -51 42 -107 23 -23 41 -44 41 -47 0 -3 -12 -5 -27 -5 -20 0 -41 14 -72 45
-24 25 -48 45 -53 45 -5 0 -26 11 -49 25 -47 30 -59 26 -59 -20 0 -19 -6 -35
-14 -38 -8 -3 -18 -22 -21 -41 -7 -32 -9 -34 -31 -24 -32 15 -30 26 7 58 28
23 30 29 20 48 -6 12 -19 22 -29 22 -9 0 -26 7 -36 15 -11 8 -32 15 -46 15
-22 0 -31 8 -45 40 -20 45 -19 44 -44 28 -14 -9 -23 -8 -42 5 -21 15 -24 15
-42 -1 -16 -15 -36 -17 -141 -14 l-121 4 -35 32 c-19 18 -57 48 -84 66 -26 18
-57 47 -68 66 -19 33 -20 33 -44 17 -20 -13 -24 -23 -22 -52 3 -32 7 -36 33
-39 43 -5 50 -16 50 -82 l0 -59 65 -64 c36 -35 75 -67 87 -71 12 -4 26 -20 31
-36 8 -20 35 -45 94 -83 90 -59 107 -75 132 -125 13 -25 23 -32 45 -32 27 0
61 -26 61 -47 0 -5 11 -20 25 -33 22 -20 30 -22 87 -16 143 15 149 17 159 45
12 33 63 65 92 57 12 -3 59 4 106 15 l84 21 45 -23 c40 -19 52 -21 94 -12 42
8 53 7 73 -9 29 -23 36 -23 69 3 28 22 45 22 103 -2 32 -13 34 -12 75 28 33
32 54 44 88 49 25 4 52 10 61 15 19 9 79 128 79 155 0 42 37 82 91 98 29 9 63
23 77 32 20 13 32 14 67 5 61 -15 216 -14 237 3 9 7 36 11 60 10 24 -2 47 -3
52 -3 5 -1 6 -24 4 -52 -5 -46 -3 -51 17 -59 13 -5 26 -14 30 -19 3 -6 29 -11
56 -11 39 0 58 -6 85 -26 29 -22 40 -25 77 -20 40 6 46 4 80 -30 l36 -37 28
19 c15 11 44 21 63 24 26 4 36 11 40 29 6 28 48 54 129 82 67 23 89 24 113 2
17 -15 22 -15 66 -1 26 9 61 22 79 29 29 12 37 11 74 -9 39 -21 44 -21 65 -7
14 9 24 25 24 38 0 13 11 34 25 47 21 20 25 32 25 85 0 73 12 92 65 103 70 14
85 86 24 117 -26 14 -29 20 -29 68 0 61 12 77 55 77 43 0 63 19 67 60 3 30 7
35 28 35 14 1 48 18 74 38 27 20 54 37 61 37 6 0 19 8 28 18 16 17 16 20 -6
40 -12 11 -34 25 -50 31 -36 14 -43 35 -23 66 14 22 15 31 5 60 -11 28 -10 37
5 60 10 15 33 33 52 41 19 8 34 18 34 23 0 18 41 23 59 7 16 -14 20 -13 49 12
17 15 45 37 62 50 33 25 37 42 18 72 -10 15 -8 27 9 62 11 24 23 55 27 70 3
15 15 30 27 33 23 8 23 11 -9 130 -14 55 -16 80 -9 114 7 32 6 50 -2 63 -13
21 -7 38 14 38 15 0 25 21 25 53 0 19 12 65 31 115 6 15 17 22 36 22 38 0 48
9 62 52 7 20 23 44 37 53 22 14 31 15 57 4 18 -7 41 -21 53 -31 28 -24 43 -23
54 7 8 21 15 24 52 23 24 -1 60 2 81 7 35 7 41 5 72 -25 27 -26 39 -31 60 -26
21 5 26 12 23 33 -3 28 30 59 39 36 3 -7 13 -23 23 -35 17 -22 19 -22 37 -5
24 21 49 22 85 3 19 -10 30 -11 34 -4 4 6 23 8 48 4 66 -11 127 -13 131 -5 3
4 26 6 52 5 36 -2 55 -9 77 -29 16 -15 34 -27 41 -27 6 0 34 -16 61 -35 69
-50 152 -48 94 2 -15 13 -20 30 -20 63 0 25 -6 52 -12 59 -11 10 -9 15 6 27
32 23 66 17 100 -19 17 -17 60 -47 96 -66 36 -19 72 -40 81 -47 22 -19 33 -18
73 10 19 13 59 26 88 30 29 4 62 13 74 21 11 7 47 13 82 13 46 0 70 6 97 22
40 25 47 63 16 80 -28 14 -30 13 -42 -17 l-11 -28 -19 24 c-33 41 -18 101 26
101 29 0 33 18 8 27 -10 3 -26 13 -35 21 -16 13 -20 13 -42 -2 -38 -24 -92
-21 -121 9 -14 13 -25 32 -25 43 0 10 -5 23 -11 29 -29 29 0 113 40 113 9 0
30 7 46 16 37 19 84 11 107 -18 15 -20 19 -21 42 -9 18 10 44 12 91 8 61 -6
70 -4 133 28 37 19 77 35 89 35 35 0 132 41 156 66 12 13 28 24 35 24 8 0 12
19 12 60 0 38 -4 60 -11 60 -7 0 -23 12 -36 26 -17 18 -29 24 -41 18 -9 -4
-35 -9 -57 -12 -22 -2 -50 -12 -63 -20 -23 -15 -26 -14 -51 16 -14 18 -30 32
-35 32 -4 0 -20 11 -35 25 -65 63 -118 103 -127 97 -5 -4 -18 -20 -27 -35
l-18 -29 -30 46 c-21 34 -35 46 -53 46 -14 0 -28 -5 -31 -10 -11 -17 -22 -2
-28 38 -8 47 -49 87 -98 96 -39 7 -49 -3 -49 -45 0 -23 -23 -25 -40 -4 -7 8
-19 15 -26 15 -23 0 -16 20 11 30 30 11 30 11 5 57 -11 21 -20 43 -20 49 0 6
-7 17 -15 24 -13 10 -23 6 -60 -29 -24 -22 -54 -41 -65 -41 -12 0 -30 -4 -40
-10 -25 -13 -110 -1 -110 16 0 7 9 18 20 24 25 14 17 30 -15 30 -34 0 -39 15
-10 34 32 21 32 44 -1 56 -32 13 -27 28 15 51 59 32 67 43 65 104 -2 65 -9 76
-61 84 -30 5 -39 11 -41 29 -5 30 -28 39 -51 18 -22 -20 -40 -21 -47 -2 -3 8
-16 17 -28 20 -40 10 -73 51 -90 111 -10 31 -15 64 -12 72 6 15 -20 73 -38 85
-6 4 -21 8 -33 8 -28 0 -65 -50 -52 -71 13 -21 13 -22 -33 -72 -24 -26 -63
-69 -87 -97 -46 -53 -61 -59 -81 -35 -16 19 -6 56 25 93 29 35 32 69 8 88 -15
10 -16 15 -5 25 18 19 15 53 -6 72 -25 23 -31 21 -42 -9z m-3660 -3775 c36
-27 29 -47 -8 -23 -15 10 -45 18 -67 18 -31 1 -40 5 -43 20 -4 17 0 18 42 13
26 -4 60 -16 76 -28z"/>
<path d="M12218 4035 c-3 -3 0 -21 6 -40 11 -37 42 -48 52 -20 12 29 -38 80
-58 60z"/>
<path d="M357 4003 c-4 -3 -7 -23 -7 -44 0 -20 -7 -50 -15 -65 -19 -37 -19
-74 0 -110 8 -16 15 -37 15 -47 0 -10 11 -30 25 -45 14 -15 28 -36 31 -47 4
-11 18 -40 33 -65 59 -102 75 -199 44 -265 -16 -34 -16 -39 0 -84 9 -27 17
-71 17 -98 0 -27 4 -53 9 -58 5 -6 12 -37 16 -71 5 -48 3 -63 -9 -73 -37 -31
-7 -130 45 -146 25 -8 69 -49 69 -63 0 -6 9 -16 20 -22 11 -6 20 -15 20 -20 0
-5 -9 -12 -20 -15 -29 -9 -28 -85 2 -126 19 -25 20 -33 10 -49 -7 -11 -12 -28
-12 -39 0 -10 -7 -32 -15 -47 -21 -42 -19 -63 10 -74 26 -10 32 -24 15 -35
-15 -10 1 -35 23 -35 11 0 40 -20 64 -45 23 -25 50 -45 59 -45 9 0 14 -7 12
-16 -2 -11 -17 -18 -48 -20 -72 -7 -81 -46 -20 -89 22 -15 40 -34 40 -41 0 -7
24 -29 54 -48 58 -37 102 -90 135 -163 5 -12 30 -35 56 -53 67 -46 95 -96 95
-170 0 -33 -5 -80 -12 -104 -15 -58 -3 -86 57 -128 25 -17 47 -39 50 -49 3 -9
37 -36 76 -59 55 -33 76 -40 99 -35 33 7 51 -7 92 -78 19 -32 39 -51 70 -65
24 -11 61 -38 83 -61 64 -66 123 -103 225 -141 76 -28 117 -26 142 5 24 31
114 82 126 71 4 -5 -21 -30 -100 -100 -16 -14 -28 -29 -28 -34 0 -5 18 -28 40
-53 22 -24 40 -47 40 -51 0 -5 24 -8 53 -8 50 -1 97 -23 97 -48 0 -16 34 -39
68 -46 19 -3 52 -22 75 -41 22 -19 50 -35 62 -35 12 0 37 -10 56 -23 30 -20
35 -29 39 -78 4 -43 12 -64 35 -92 17 -19 35 -36 42 -36 7 -1 28 19 47 44 58
76 79 88 154 88 90 -1 180 -27 215 -64 24 -25 35 -29 82 -29 60 0 75 14 75 67
0 40 -69 221 -97 254 -7 8 -13 20 -13 26 0 18 -39 99 -80 167 -27 44 -40 77
-40 102 0 28 -9 47 -45 87 -28 32 -47 65 -51 87 -10 65 -21 79 -90 111 -36 17
-93 56 -126 85 -33 30 -67 54 -74 54 -21 0 -17 26 6 41 19 13 20 26 21 222 l0
208 -30 35 c-17 19 -34 46 -37 61 -9 36 14 152 36 184 12 17 15 31 9 40 -19
30 -9 96 22 155 31 58 32 59 24 154 -5 52 -7 120 -6 150 2 49 -3 62 -37 115
-58 89 -88 142 -127 225 -19 41 -40 82 -45 90 -6 8 -14 25 -20 38 -21 50 -108
117 -210 164 -62 28 -120 73 -120 93 0 14 -65 75 -79 75 -11 0 -71 92 -71 109
0 20 -60 101 -74 101 -8 0 -17 12 -20 26 -6 21 -9 24 -21 14 -8 -7 -36 -10
-67 -8 -50 3 -53 2 -56 -22 -2 -15 -25 -45 -59 -75 -50 -45 -56 -56 -64 -105
-6 -41 -15 -59 -36 -77 -33 -26 -46 -28 -63 -8 -7 8 -25 15 -40 15 -23 0 -32
8 -50 45 -25 51 -46 57 -87 25 -14 -11 -38 -20 -53 -20 -15 0 -39 -9 -53 -20
-14 -11 -31 -20 -39 -20 -23 0 -38 -22 -38 -57 0 -36 -29 -73 -58 -73 -9 0
-37 23 -62 52 -74 85 -73 82 -52 120 11 19 28 34 41 36 12 2 29 14 38 28 14
23 14 28 -2 71 -17 44 -17 47 0 75 9 17 13 33 9 38 -14 12 -113 20 -119 9 -22
-34 -70 14 -85 86 -4 19 -20 40 -48 59 -39 28 -44 29 -79 17 -32 -10 -44 -10
-75 3 -20 9 -39 20 -43 26 -3 5 -18 10 -32 10 -33 0 -83 36 -83 61 0 36 -19
59 -49 59 -15 0 -31 -3 -34 -7z"/>
<path d="M95 3820 c-11 -4 -37 -6 -57 -3 -36 5 -38 4 -38 -21 0 -14 4 -26 10
-26 5 0 17 -9 27 -19 15 -15 28 -18 71 -14 58 6 66 22 36 68 -18 27 -19 28
-49 15z"/>
<path d="M382 3157 c-20 -23 -20 -113 -1 -132 15 -15 18 -14 38 11 27 35 27
76 -2 110 -20 23 -24 24 -35 11z"/>
<path d="M10700 3056 c0 -16 27 -46 41 -46 20 0 22 33 4 46 -24 18 -45 18 -45
0z"/>
<path d="M12380 2290 c-14 -27 5 -35 65 -26 68 11 61 28 -17 41 -31 5 -39 2
-48 -15z"/>
<path d="M3093 1343 c-7 -3 -13 -18 -13 -34 0 -22 5 -29 20 -29 15 0 20 7 20
29 0 32 -7 41 -27 34z"/>
<path d="M8004 1295 c-4 -9 -3 -44 0 -78 4 -34 7 -79 6 -99 0 -39 26 -92 40
-83 5 3 8 58 8 123 0 92 -3 121 -16 135 -19 21 -31 22 -38 2z"/>
<path d="M7945 1008 c-9 -22 -2 -68 10 -71 14 -3 18 49 6 70 -9 17 -10 17 -16
1z"/>
<path d="M8062 1003 c2 -10 10 -18 18 -18 8 0 16 8 18 18 2 12 -3 17 -18 17
-15 0 -20 -5 -18 -17z"/>
<path d="M8217 1004 c-4 -4 -7 -18 -7 -30 0 -17 -7 -23 -27 -26 -22 -2 -28 -8
-28 -28 0 -18 6 -26 23 -28 18 -3 23 2 28 26 4 18 14 32 25 35 10 3 19 9 19
14 0 16 -25 44 -33 37z"/>
</g>
</svg>
