<?xml version="1.0" standalone="no"?>
<!DOCTYPE svg PUBLIC "-//W3C//DTD SVG 20010904//EN"
 "http://www.w3.org/TR/2001/REC-SVG-20010904/DTD/svg10.dtd">
<svg version="1.0" xmlns="http://www.w3.org/2000/svg"
 width="657.000000pt" height="690.000000pt" viewBox="0 0 657.000000 690.000000"
 preserveAspectRatio="xMidYMid meet">
<metadata>
Created by potrace 1.10, written by Peter Selinger 2001-2011
</metadata>
<g transform="translate(0.000000,690.000000) scale(0.100000,-0.100000)"
fill="#000000" stroke="none">
<path d="M4825 5871 c-16 -4 -40 -13 -52 -19 -12 -7 -45 -12 -73 -12 -45 0
-53 -3 -57 -21 -4 -12 -16 -40 -28 -63 -12 -22 -25 -53 -28 -67 -4 -15 -25
-38 -48 -54 -24 -17 -50 -48 -65 -76 -13 -27 -58 -85 -100 -131 -123 -134
-128 -138 -180 -138 -68 0 -85 -13 -84 -63 0 -23 -3 -66 -6 -95 -5 -46 -10
-54 -37 -69 -18 -9 -45 -26 -60 -39 -20 -17 -41 -24 -72 -24 -42 0 -109 -29
-127 -55 -4 -5 -8 -27 -8 -47 0 -45 -13 -55 -45 -34 -39 26 -61 19 -101 -29
-21 -24 -54 -52 -73 -60 -20 -9 -45 -21 -55 -27 -31 -17 -76 -27 -91 -21 -19
7 -43 55 -51 102 -4 20 -13 48 -20 63 -8 15 -14 50 -14 77 0 45 -3 52 -35 77
-19 14 -51 48 -71 75 -39 54 -57 60 -75 27 -6 -12 -21 -31 -31 -42 -11 -12
-25 -33 -30 -48 -12 -35 -28 -35 -58 -3 -28 30 -91 49 -138 41 -21 -3 -51 -21
-81 -49 -71 -66 -81 -70 -205 -68 -109 1 -126 -2 -216 -34 -51 -19 -124 -94
-248 -255 l-24 -31 -88 7 c-105 8 -133 2 -148 -30 -6 -14 -26 -42 -44 -63 -36
-41 -53 -67 -67 -99 -10 -23 -56 -65 -119 -109 -31 -22 -45 -41 -53 -70 -6
-22 -17 -47 -24 -55 -7 -8 -18 -26 -25 -39 -11 -21 -9 -26 21 -50 28 -24 31
-29 20 -50 -11 -20 -10 -23 9 -28 30 -8 62 -80 49 -106 -6 -10 -17 -21 -25
-24 -23 -9 -16 -46 16 -76 20 -19 31 -40 32 -60 1 -18 3 -52 4 -77 2 -30 -4
-58 -18 -85 l-20 -41 22 -46 c12 -26 40 -62 63 -81 33 -27 46 -47 59 -94 13
-42 29 -70 58 -98 22 -21 40 -45 40 -51 0 -23 -31 -44 -65 -44 -41 0 -71 -36
-61 -74 7 -30 -19 -43 -44 -21 -19 17 -60 20 -60 5 0 -6 -11 -15 -24 -20 -38
-14 -61 -57 -59 -109 2 -50 -9 -71 -38 -71 -11 0 -35 -10 -54 -22 -25 -17 -35
-30 -35 -50 0 -28 -3 -32 -52 -69 -32 -23 -35 -49 -12 -84 18 -27 12 -45 -16
-45 -10 0 -46 -27 -79 -60 -34 -33 -68 -60 -76 -60 -22 0 -121 -103 -134 -140
-6 -18 -11 -44 -11 -57 0 -13 -12 -35 -27 -49 -38 -35 -54 -16 -43 51 4 28 3
61 -2 77 -6 16 -7 40 -4 54 9 34 -28 86 -58 82 -17 -2 -21 -10 -22 -38 -1 -19
-11 -54 -23 -77 -11 -23 -21 -49 -21 -57 0 -21 -47 -74 -81 -91 -15 -8 -42
-15 -59 -15 -37 0 -109 -40 -128 -71 -8 -11 -15 -47 -18 -78 -5 -78 -18 -103
-75 -151 -27 -23 -49 -48 -49 -56 0 -9 18 -32 40 -51 63 -57 102 -185 79 -261
-11 -38 -10 -42 21 -80 17 -22 44 -43 59 -47 14 -4 48 -17 74 -31 27 -13 60
-24 73 -24 35 0 102 -45 126 -86 11 -18 22 -34 24 -34 2 0 12 17 22 37 15 30
20 70 25 190 3 84 11 162 18 174 10 20 16 21 78 14 79 -8 85 -8 136 0 35 6 46
3 70 -18 60 -49 90 -58 188 -56 51 1 104 -3 119 -9 20 -8 59 -50 84 -90 1 -2
12 2 24 8 31 17 44 0 42 -55 -2 -37 2 -50 23 -69 27 -25 31 -55 14 -106 -9
-24 -9 -46 0 -89 13 -61 70 -184 86 -185 6 -1 14 13 19 31 9 27 15 32 54 38
25 4 56 14 69 22 21 14 31 14 103 -1 48 -10 98 -27 128 -46 47 -29 122 -42
122 -21 0 19 81 51 129 51 27 0 66 7 87 16 47 20 110 20 133 1 22 -19 101 -47
133 -47 36 0 85 44 93 83 4 17 14 40 23 50 23 26 78 22 114 -8 16 -14 35 -25
42 -25 20 0 145 58 178 83 43 32 85 107 107 189 15 61 18 96 13 213 -4 118 -2
146 12 172 9 18 16 44 16 59 0 19 13 39 44 68 24 23 46 51 49 63 3 12 -6 75
-20 140 -14 65 -27 130 -30 144 -3 15 3 41 12 59 16 30 19 32 59 28 64 -8 177
-67 204 -107 32 -49 100 -122 152 -161 41 -33 49 -35 117 -35 66 1 75 3 103
30 16 16 30 33 30 38 0 5 16 32 35 61 19 29 35 58 35 64 0 6 9 16 20 22 15 8
31 6 70 -11 61 -26 133 -23 225 11 46 17 73 36 115 81 31 33 59 59 64 59 4 0
21 -11 37 -25 20 -16 41 -24 63 -23 44 2 56 -8 56 -42 0 -27 38 -70 63 -70 5
0 29 -18 53 -40 25 -23 54 -40 67 -40 13 0 48 -13 78 -30 64 -35 82 -37 132
-10 45 24 88 25 151 4 46 -16 48 -16 72 7 13 12 36 43 51 68 46 79 73 88 126
41 67 -58 121 -64 186 -20 24 17 47 30 52 30 4 0 25 26 46 58 47 70 70 154 54
195 -25 64 -8 217 34 312 7 17 20 50 28 75 9 25 23 63 32 85 27 62 15 109 -39
164 -58 59 -152 210 -171 275 -21 69 -19 114 9 193 36 103 37 109 22 273 -15
159 -14 168 15 211 10 14 21 44 25 65 5 34 1 46 -28 89 -60 89 -131 189 -172
245 -48 64 -62 99 -75 191 -5 37 -14 77 -21 88 -16 31 -171 129 -220 140 -31
7 -55 22 -84 54 -23 24 -62 53 -87 65 -60 29 -94 90 -102 182 -8 87 -31 148
-70 185 -39 37 -67 79 -67 100 0 25 -46 65 -74 65 -37 0 -51 32 -30 72 16 31
16 32 -10 51 -38 27 -34 62 11 104 29 28 33 37 22 44 -16 10 -121 10 -164 0z"/>
<path d="M570 2284 c-11 -26 -20 -50 -20 -55 0 -20 24 -19 48 4 15 13 39 32
55 42 15 9 27 26 27 36 0 16 -8 19 -45 19 -43 0 -45 -1 -65 -46z"/>
</g>
</svg>
