<?xml version="1.0" standalone="no"?>
<!DOCTYPE svg PUBLIC "-//W3C//DTD SVG 20010904//EN"
 "http://www.w3.org/TR/2001/REC-SVG-20010904/DTD/svg10.dtd">
<svg version="1.0" xmlns="http://www.w3.org/2000/svg"
 width="570.000000pt" height="900.000000pt" viewBox="0 0 570.000000 900.000000"
 preserveAspectRatio="xMidYMid meet">
<metadata>
Created by potrace 1.10, written by Peter Selinger 2001-2011
</metadata>
<g transform="translate(0.000000,900.000000) scale(0.100000,-0.100000)"
fill="#000000" stroke="none">
<path d="M5424 8713 c3 -21 6 -51 6 -66 0 -24 4 -28 23 -25 18 2 23 10 25 45
4 51 -11 83 -40 83 -18 0 -20 -4 -14 -37z"/>
<path d="M5395 8520 c-6 -20 0 -40 14 -40 11 0 31 47 24 54 -13 12 -32 5 -38
-14z"/>
<path d="M5335 8410 c-7 -12 2 -30 16 -30 12 0 12 27 0 35 -5 3 -12 1 -16 -5z"/>
<path d="M4804 6425 c-8 -21 15 -65 33 -65 22 0 13 74 -10 78 -9 2 -20 -4 -23
-13z"/>
<path d="M4785 6204 c-28 -30 -33 -75 -10 -94 9 -7 25 -32 36 -54 34 -69 45
-85 72 -106 29 -23 34 -53 15 -95 -11 -24 -9 -29 11 -45 13 -9 21 -22 17 -28
-3 -6 2 -26 13 -46 l20 -34 -35 -58 c-19 -31 -44 -78 -55 -103 -11 -25 -40
-65 -64 -89 -44 -42 -46 -43 -92 -36 -27 3 -63 13 -82 20 -59 24 -84 18 -122
-28 -19 -23 -39 -54 -45 -69 -10 -21 -21 -27 -61 -33 -27 -3 -63 -3 -80 0 -26
5 -34 2 -48 -20 -11 -16 -14 -32 -9 -43 51 -117 26 -200 -66 -213 -25 -4 -36
-11 -38 -25 -2 -11 -10 -27 -17 -35 -7 -8 -15 -28 -17 -45 -3 -28 -6 -30 -43
-30 -56 0 -68 -10 -60 -52 3 -19 1 -50 -5 -68 -6 -19 -9 -44 -5 -55 9 -28 85
-70 128 -70 31 0 67 -20 67 -37 0 -3 -12 -20 -27 -38 -16 -18 -36 -45 -46 -59
-23 -33 -67 -36 -67 -5 0 12 8 37 17 56 16 34 16 36 -2 49 -24 18 -46 18 -71
-1 -10 -8 -28 -15 -40 -15 -12 0 -35 -5 -53 -11 -34 -12 -43 -47 -16 -69 20
-17 20 -21 -14 -93 -16 -34 -32 -74 -35 -89 -3 -14 -18 -40 -32 -57 -33 -39
-26 -59 23 -63 36 -3 38 -5 41 -40 2 -24 10 -42 21 -48 10 -5 37 -25 61 -45
24 -20 50 -34 60 -33 34 6 49 -20 43 -71 -4 -35 -1 -55 11 -74 11 -16 17 -43
16 -79 -5 -160 -8 -152 98 -209 53 -29 64 -32 72 -19 6 10 31 15 91 17 93 2
128 22 127 73 -1 38 9 50 42 50 25 0 33 -7 49 -40 10 -22 15 -42 10 -46 -12
-7 -11 -41 2 -49 19 -13 69 16 75 44 4 14 14 34 22 44 14 15 14 22 3 50 -20
47 -34 187 -22 213 5 12 7 63 5 115 l-5 94 33 35 c18 19 45 43 60 53 26 16 27
22 26 80 -2 63 -2 64 57 142 33 43 76 86 94 96 54 29 57 43 19 97 -19 26 -48
53 -65 61 -21 9 -37 28 -52 62 -11 27 -21 54 -21 60 0 20 44 69 63 69 10 0 39
14 63 31 34 23 44 35 38 47 -16 36 -16 193 -1 235 9 24 17 91 20 153 2 61 10
121 17 134 14 26 5 226 -11 236 -5 3 -9 33 -9 68 0 54 -3 66 -25 86 -30 28
-31 44 -5 77 24 31 25 46 5 63 -8 7 -15 19 -15 26 0 8 -18 41 -41 74 -59 87
-92 100 -134 54z"/>
<path d="M3610 3658 c0 -7 17 -27 37 -44 26 -22 35 -36 30 -48 -6 -15 -17 -17
-62 -14 -33 2 -53 -1 -52 -7 1 -5 20 -9 42 -7 33 3 45 -2 65 -23 13 -14 25
-36 25 -48 0 -32 32 -34 46 -3 7 14 20 26 29 26 9 0 21 5 27 11 10 10 48 -2
63 -20 3 -4 18 -12 33 -19 23 -10 28 -9 32 3 3 8 7 22 10 30 4 12 16 14 62 9
65 -8 83 -17 83 -46 0 -18 -4 -20 -45 -14 -38 6 -46 4 -52 -11 -8 -21 -45 -63
-56 -63 -12 0 -58 52 -68 78 -5 12 -13 22 -19 22 -15 0 -12 -38 6 -65 10 -16
14 -34 9 -54 -6 -27 -3 -31 20 -37 15 -4 30 -17 35 -30 13 -33 68 -33 106 -1
l27 23 -32 26 c-17 15 -31 34 -31 42 0 25 38 19 56 -9 9 -14 20 -25 25 -25 5
0 27 18 49 40 35 35 39 44 33 72 -3 18 -19 47 -36 65 -27 28 -28 35 -19 62 10
27 8 32 -10 42 -25 14 -108 -2 -176 -32 -23 -10 -53 -19 -67 -19 -23 0 -55
-23 -55 -39 0 -4 -12 -13 -27 -20 -23 -11 -29 -10 -40 5 -7 10 -13 22 -13 26
0 12 43 54 60 60 26 8 2 36 -46 52 -57 19 -104 21 -104 4z"/>
<path d="M4492 3599 c1 -12 9 -24 16 -27 9 -3 13 3 10 19 -1 12 -9 24 -16 27
-9 3 -13 -3 -10 -19z"/>
<path d="M4377 3554 c-8 -8 1 -24 14 -24 5 0 9 7 9 15 0 15 -12 20 -23 9z"/>
<path d="M4280 3507 c0 -24 2 -46 5 -49 12 -12 80 8 83 25 2 10 -3 17 -12 17
-9 0 -26 11 -38 25 -30 35 -38 31 -38 -18z"/>
<path d="M3507 3473 c-22 -21 16 -123 45 -123 21 0 68 -49 68 -71 0 -11 -11
-24 -25 -31 -14 -6 -25 -19 -25 -28 0 -9 -5 -21 -12 -28 -9 -9 -8 -12 4 -12
22 0 34 -39 17 -56 -12 -11 -21 -10 -54 6 -36 17 -40 17 -44 3 -2 -9 4 -22 12
-28 14 -10 8 -15 -33 -36 -43 -21 -55 -34 -85 -92 -24 -43 -46 -72 -66 -82
-16 -9 -29 -22 -29 -30 0 -8 -4 -15 -10 -15 -13 0 -13 23 0 36 17 17 0 74 -21
74 -29 0 -23 16 21 62 27 27 37 45 31 51 -9 9 -20 7 -51 -12 -8 -5 -23 -12
-32 -15 -14 -4 -18 -17 -18 -60 0 -48 -3 -55 -21 -58 -12 -2 -27 -11 -33 -20
-17 -28 5 -52 52 -59 23 -3 44 -8 47 -11 8 -8 -27 -67 -43 -73 -19 -7 -58 24
-79 62 -18 33 -118 103 -146 103 -28 0 -29 -20 -3 -31 14 -7 33 -23 41 -36 9
-12 22 -23 29 -23 15 0 66 -55 66 -71 0 -5 10 -23 22 -40 20 -26 27 -30 55
-24 29 5 33 3 33 -15 0 -33 28 -23 40 15 14 42 64 95 90 95 10 0 35 19 54 42
30 35 36 49 36 89 0 39 4 51 26 68 32 25 97 28 116 5 52 -63 127 -114 128 -86
1 4 5 26 9 49 9 47 2 59 -39 65 -21 2 -25 9 -28 43 -2 22 -11 48 -19 57 -13
14 -14 25 -6 50 8 29 13 33 40 31 41 -4 53 14 46 64 -5 40 -8 42 -62 63 -67
25 -121 67 -121 95 0 25 -14 48 -23 38z"/>
<path d="M3407 3223 c-13 -13 -7 -30 17 -42 37 -20 52 -4 25 25 -24 25 -31 28
-42 17z"/>
<path d="M2540 3126 c0 -37 12 -51 35 -42 11 4 11 12 3 40 -15 47 -38 48 -38
2z"/>
<path d="M3380 3116 c0 -24 18 -28 30 -6 9 17 8 20 -10 20 -11 0 -20 -6 -20
-14z"/>
<path d="M2622 3083 c-13 -3 -21 -10 -19 -16 4 -14 78 -21 115 -12 19 5 22 8
12 20 -12 14 -57 18 -108 8z"/>
<path d="M2870 3063 c0 -24 38 -94 53 -99 25 -8 34 3 19 26 -7 11 -12 26 -12
33 0 8 -8 21 -18 30 -19 18 -42 23 -42 10z"/>
<path d="M3120 3005 c0 -8 9 -15 20 -15 11 0 20 7 20 15 0 8 -9 15 -20 15 -11
0 -20 -7 -20 -15z"/>
<path d="M3115 2500 c-31 -31 -37 -43 -26 -49 17 -11 51 -2 51 14 0 7 9 24 20
37 17 23 18 38 0 38 -3 0 -24 -18 -45 -40z"/>
<path d="M3200 2453 c-31 -46 -31 -46 -14 -78 17 -32 17 -33 -11 -69 -32 -42
-61 -46 -111 -15 -37 23 -40 29 -22 47 16 16 45 15 52 0 3 -7 3 5 -1 27 -7 50
-7 49 -33 35 -13 -7 -43 -15 -68 -19 -46 -6 -47 -7 -54 -51 -6 -36 -5 -47 8
-57 13 -9 13 -15 2 -33 -9 -16 -10 -24 -2 -27 6 -2 26 -17 44 -33 40 -36 81
-39 125 -10 42 28 63 25 100 -14 24 -26 35 -32 44 -23 15 15 14 25 -9 54 -24
30 -25 65 -5 122 12 36 12 46 0 82 -14 38 -13 43 5 66 25 32 25 43 1 43 -12 0
-32 -18 -51 -47z"/>
<path d="M2380 2415 c-11 -13 -9 -19 10 -37 27 -25 115 -31 115 -7 0 8 -10 15
-21 17 -12 2 -30 12 -40 23 -21 23 -47 25 -64 4z"/>
<path d="M2790 2222 c0 -6 6 -12 13 -15 9 -3 7 -9 -6 -24 -16 -18 -16 -21 -2
-33 13 -11 19 -11 32 2 12 12 13 23 6 45 -9 26 -43 46 -43 25z"/>
<path d="M2346 2202 c-10 -17 7 -52 24 -52 20 0 36 33 25 50 -7 12 -42 13 -49
2z"/>
<path d="M2230 2062 c0 -25 26 -89 41 -97 6 -4 16 -2 22 5 9 9 8 14 -5 24 -9
7 -18 28 -20 46 -3 39 -38 58 -38 22z"/>
<path d="M3111 1966 c-13 -15 -4 -26 21 -26 21 0 24 25 4 33 -8 3 -19 0 -25
-7z"/>
<path d="M2297 1933 c-2 -10 -8 -25 -11 -34 -5 -12 0 -18 18 -23 31 -8 71 7
80 29 10 27 -4 38 -24 20 -17 -16 -19 -15 -30 4 -13 26 -26 27 -33 4z"/>
<path d="M2526 1827 c-11 -8 -17 -23 -14 -38 2 -20 8 -23 33 -21 17 2 36 10
44 17 11 11 10 16 -8 34 -25 25 -31 25 -55 8z"/>
<path d="M2443 1804 c-7 -18 11 -39 26 -30 17 11 13 46 -4 46 -9 0 -18 -7 -22
-16z"/>
<path d="M2917 1783 c-13 -12 -7 -23 13 -23 11 0 20 7 20 15 0 15 -21 21 -33
8z"/>
<path d="M2506 1619 c-14 -11 -26 -25 -26 -30 0 -18 45 -8 67 15 37 38 4 51
-41 15z"/>
<path d="M2390 1582 c0 -23 27 -49 55 -54 35 -6 32 38 -4 56 -39 21 -51 20
-51 -2z"/>
<path d="M2395 1459 c-19 -17 -35 -38 -35 -45 0 -21 -41 -74 -57 -74 -7 0 -20
-12 -30 -27 -18 -29 -35 -45 -78 -76 -26 -18 -26 -21 -19 -100 3 -45 11 -90
16 -99 16 -32 22 -29 133 65 18 15 35 27 39 27 3 0 28 23 56 50 28 28 57 50
64 50 8 0 31 20 52 45 42 52 37 68 -17 63 -30 -3 -34 -7 -40 -41 -8 -50 -13
-53 -54 -34 -43 20 -44 40 -5 69 17 12 30 29 30 37 0 9 7 25 15 35 8 11 15 35
15 53 0 28 -3 33 -25 33 -13 0 -40 -14 -60 -31z"/>
<path d="M1571 611 c-9 -6 -12 -18 -7 -37 17 -68 18 -100 2 -113 -24 -20 -21
-87 3 -101 30 -15 102 38 145 108 20 31 36 61 36 67 0 6 -17 28 -38 48 -32 32
-44 37 -82 37 -25 0 -51 -4 -59 -9z"/>
</g>
</svg>
