<?xml version="1.0" standalone="no"?>
<!DOCTYPE svg PUBLIC "-//W3C//DTD SVG 20010904//EN"
 "http://www.w3.org/TR/2001/REC-SVG-20010904/DTD/svg10.dtd">
<svg version="1.0" xmlns="http://www.w3.org/2000/svg"
 width="350.000000pt" height="294.000000pt" viewBox="0 0 350.000000 294.000000"
 preserveAspectRatio="xMidYMid meet">

<g transform="translate(0.000000,294.000000) scale(0.100000,-0.100000)"
fill="#000000" stroke="none">
<path d="M2835 2904 c-31 -27 -46 -34 -68 -29 -26 4 -30 1 -53 -55 -22 -49
-31 -60 -55 -64 -16 -3 -42 -9 -58 -12 -24 -4 -32 -13 -42 -42 -6 -20 -18 -43
-27 -49 -28 -22 -80 -15 -127 17 l-44 30 -850 0 -851 0 0 -215 0 -215 -105 0
-105 0 0 -459 0 -460 -47 0 c-92 1 -138 -6 -162 -23 -22 -15 -23 -20 -13 -43
18 -38 15 -47 -22 -88 -22 -24 -32 -44 -29 -56 3 -14 -3 -21 -26 -29 -28 -10
-30 -14 -24 -44 3 -18 10 -34 15 -36 19 -8 5 -33 -30 -51 -56 -29 -64 -49 -41
-99 18 -39 18 -44 3 -67 -9 -14 -22 -25 -29 -25 -16 0 -45 -44 -45 -68 0 -31
26 -47 55 -34 33 15 79 -3 66 -26 -5 -9 -4 -30 4 -51 6 -20 10 -42 8 -49 -3
-8 1 -10 13 -5 15 5 16 1 10 -41 -7 -42 -5 -51 15 -72 12 -13 30 -24 40 -24
21 0 33 -43 19 -70 -17 -33 -11 -49 38 -99 56 -59 108 -139 117 -182 8 -35 2
-35 167 -7 85 14 107 29 117 79 7 33 8 34 81 45 101 17 98 17 105 -8 4 -13 18
-34 30 -48 13 -14 31 -44 40 -67 15 -37 23 -44 58 -54 33 -9 47 -8 74 5 23 11
62 16 123 16 l90 0 -10 26 c-6 14 -10 41 -10 60 l0 34 126 0 126 0 -7 -56 c-6
-48 -4 -56 8 -51 8 3 35 8 60 12 42 7 47 10 52 39 6 30 58 76 85 76 20 0 91
-41 128 -74 38 -34 103 -53 140 -42 19 6 111 114 150 176 13 19 42 51 67 70
29 23 42 40 38 50 -4 8 -8 40 -11 70 -3 42 -10 61 -30 82 l-26 28 57 0 c57 0
57 0 57 30 l0 30 66 0 c42 0 63 -4 59 -10 -18 -28 -24 -140 -13 -224 11 -83
14 -89 39 -98 15 -5 39 -24 52 -41 13 -18 37 -44 52 -59 23 -23 26 -33 21 -60
-18 -88 -18 -98 -4 -98 9 0 22 23 33 62 10 35 22 68 27 75 5 6 7 30 4 53 -8
72 49 137 84 96 6 -8 18 -12 26 -9 16 6 38 78 29 94 -4 5 1 26 10 45 9 19 14
43 10 53 -3 11 3 25 15 36 12 11 37 49 56 86 45 84 62 101 113 102 23 1 41 4
42 7 1 3 3 26 5 53 2 26 10 60 18 75 22 41 49 123 43 129 -3 3 -1 17 4 31 7
18 7 60 -1 130 -9 88 -9 107 3 121 8 9 33 69 55 134 35 101 39 122 29 144 -9
21 -8 26 6 34 11 7 17 23 17 48 l0 39 47 -2 c45 -1 48 0 56 32 7 21 16 32 29
32 10 0 21 6 24 14 3 8 13 12 25 9 10 -3 19 -1 19 5 0 5 11 10 25 9 27 0 65
28 65 48 0 7 9 24 20 38 24 30 25 37 5 37 -8 0 -15 5 -15 10 0 6 -7 10 -15 10
-8 0 -15 4 -15 9 0 5 -9 7 -20 4 -14 -4 -20 0 -20 10 0 20 -78 87 -102 87 -21
0 -53 44 -43 60 4 6 2 16 -3 23 -17 22 -54 254 -45 287 3 10 -2 44 -11 74 -11
37 -14 62 -8 73 7 11 1 34 -19 77 -16 34 -29 78 -29 99 0 32 -5 41 -31 55 -47
25 -89 62 -89 77 0 12 -29 28 -55 29 -20 2 -52 32 -66 64 -7 17 -16 32 -19 32
-3 -1 -23 -16 -45 -36z"/>
</g>
</svg>
