<?xml version="1.0" standalone="no"?>
<!DOCTYPE svg PUBLIC "-//W3C//DTD SVG 20010904//EN"
 "http://www.w3.org/TR/2001/REC-SVG-20010904/DTD/svg10.dtd">
<svg version="1.0" xmlns="http://www.w3.org/2000/svg"
 width="900.000000pt" height="1194.000000pt" viewBox="0 0 900.000000 1194.000000"
 preserveAspectRatio="xMidYMid meet">
<metadata>
Created by potrace 1.10, written by Peter Selinger 2001-2011
</metadata>
<g transform="translate(0.000000,1194.000000) scale(0.100000,-0.100000)"
fill="#000000" stroke="none">
<path d="M4310 11906 c0 -46 42 -96 80 -96 16 0 30 7 34 16 7 17 -29 84 -45
84 -5 0 -9 7 -9 15 0 10 -10 15 -30 15 -27 0 -30 -3 -30 -34z"/>
<path d="M4525 11806 c-32 -14 -62 -57 -51 -75 15 -24 71 -12 104 22 36 37 40
52 16 61 -22 8 -35 7 -69 -8z"/>
<path d="M4300 11745 c-17 -20 -8 -49 16 -53 15 -2 23 4 27 18 11 44 -17 67
-43 35z"/>
<path d="M6142 11467 c-13 -15 1 -42 17 -33 13 9 15 33 2 40 -5 3 -13 0 -19
-7z"/>
<path d="M6250 11440 c-25 -25 -25 -35 0 -60 19 -19 22 -19 50 -5 20 10 30 23
30 38 0 47 -45 62 -80 27z"/>
<path d="M4082 11408 c-16 -16 -15 -37 3 -44 8 -4 15 -13 15 -21 0 -13 -9 -15
-50 -10 -28 3 -61 2 -73 -2 -35 -13 -84 -69 -91 -103 -9 -46 7 -64 61 -72 53
-7 93 -38 93 -73 0 -12 -6 -40 -14 -60 -18 -51 -36 -150 -36 -201 0 -49 -12
-53 -58 -19 -41 31 -72 70 -72 94 -1 27 -34 95 -57 116 -25 21 -43 15 -72 -24
-39 -53 -14 -160 55 -233 79 -83 104 -118 104 -146 0 -37 -36 -60 -94 -60 -37
0 -48 5 -70 30 -24 29 -40 73 -48 128 -2 13 -15 31 -30 40 -25 15 -30 15 -70
-5 -68 -34 -90 -36 -149 -14 -64 25 -90 26 -129 6 -45 -23 -73 -71 -72 -122 0
-35 7 -53 38 -89 71 -88 192 -154 280 -154 42 0 84 -22 84 -44 0 -14 -90 -95
-125 -113 -11 -6 -29 -7 -40 -2 -42 16 -50 10 -63 -44 -20 -88 -16 -128 21
-181 67 -99 107 -174 107 -202 0 -24 41 -94 67 -114 31 -24 71 -25 120 -5 21
9 67 15 112 15 110 0 230 42 313 108 l37 29 194 5 c199 6 216 9 277 54 8 6 36
17 62 24 53 14 108 0 108 -27 0 -27 32 -69 61 -80 16 -6 29 -18 29 -25 0 -12
-51 -58 -64 -58 -3 0 -25 -13 -49 -30 l-45 -30 -156 0 -155 0 -36 -31 c-19
-17 -35 -38 -34 -48 1 -35 57 -117 109 -159 30 -25 56 -48 58 -51 1 -3 -7 -12
-18 -19 -16 -10 -25 -10 -43 0 -12 7 -49 11 -84 9 -73 -3 -150 28 -197 78 -39
41 -104 74 -131 67 -45 -11 -57 -95 -31 -216 19 -88 38 -129 78 -166 43 -41
76 -56 172 -79 82 -20 128 -51 147 -101 11 -32 54 -41 93 -21 97 49 178 56
397 36 156 -14 200 -4 262 57 49 48 58 52 77 29 10 -12 10 -23 -4 -58 -22 -57
-31 -182 -17 -233 21 -79 95 -135 238 -183 139 -47 243 -16 325 98 39 54 98
169 98 192 0 8 15 29 33 47 28 28 40 32 85 32 42 0 58 -5 84 -28 38 -32 100
-62 128 -62 78 0 187 160 217 320 8 41 18 174 21 294 l7 219 40 31 c22 17 55
47 73 66 34 36 122 173 122 190 0 6 38 48 83 94 109 108 132 155 131 261 0 54
-5 88 -16 105 -31 50 -42 117 -28 163 8 23 20 51 27 62 22 34 16 71 -16 94
-33 24 -63 27 -371 41 -232 10 -237 11 -449 121 -39 20 -63 26 -86 22 -28 -4
-36 -1 -50 21 -10 14 -26 26 -36 26 -25 0 -35 21 -15 32 12 7 16 23 16 63 0
29 -3 60 -6 69 -12 32 -24 3 -24 -59 0 -54 -4 -68 -25 -91 -31 -33 -111 -47
-121 -20 -3 9 -3 22 0 29 15 27 32 56 45 71 20 24 -40 56 -105 56 -88 0 -103
-53 -19 -65 51 -8 68 -28 52 -59 -5 -12 -13 -27 -17 -35 -4 -9 -26 -15 -65
-17 -88 -5 -105 -25 -105 -127 0 -96 -10 -111 -86 -133 -29 -8 -71 -29 -95
-46 -32 -23 -47 -28 -58 -21 -26 16 -41 73 -35 132 6 56 20 82 87 160 51 60
49 89 -8 150 -49 52 -56 85 -30 131 24 42 18 75 -16 105 -47 39 -104 65 -144
65 -39 0 -45 -15 -21 -53 21 -34 27 -109 11 -137 -8 -14 -19 -36 -25 -49 -8
-18 -14 -21 -22 -13 -16 16 -34 15 -52 -4 -21 -20 -20 -54 1 -99 15 -32 16
-50 4 -208 -10 -146 -10 -186 2 -262 18 -111 14 -141 -27 -190 -49 -58 -60
-46 -75 75 -11 89 -17 108 -44 145 -39 53 -75 75 -119 75 -19 0 -37 3 -41 6
-3 3 5 26 18 50 13 24 31 63 40 88 16 41 16 45 0 70 -14 21 -25 26 -56 26 -39
0 -169 -54 -169 -69 0 -13 -74 -61 -93 -61 -22 0 -57 57 -57 93 0 40 -33 99
-76 137 -36 31 -37 35 -35 91 2 67 -14 91 -73 107 -46 13 -96 49 -96 69 0 9
16 40 36 70 48 72 44 97 -16 101 -26 2 -50 -2 -58 -10z"/>
<path d="M5552 11408 c-7 -7 -12 -20 -12 -30 0 -14 8 -18 39 -18 41 0 67 20
57 45 -7 18 -67 20 -84 3z"/>
<path d="M8855 11398 c-11 -6 -54 -45 -95 -86 -105 -105 -264 -222 -301 -222
-50 0 -189 -118 -189 -160 0 -34 63 -50 195 -50 l125 0 40 53 c86 109 338 346
361 340 5 -2 9 11 9 27 0 20 -5 30 -15 30 -8 0 -19 9 -25 21 -10 18 -66 59
-80 59 -3 0 -14 -6 -25 -12z"/>
<path d="M6132 11354 c-30 -20 -29 -54 1 -54 32 1 72 34 64 54 -8 20 -36 21
-65 0z"/>
<path d="M5616 11278 c-21 -30 -21 -77 0 -85 24 -9 44 23 44 69 0 44 -20 51
-44 16z"/>
<path d="M3444 11059 c-23 -12 -54 -59 -54 -82 0 -32 94 -127 126 -127 7 0 26
13 43 29 25 23 31 37 31 69 0 34 -6 45 -45 81 -46 42 -64 47 -101 30z"/>
<path d="M7072 10847 c-61 -63 -33 -167 41 -151 42 9 44 10 78 56 36 50 36 58
3 97 -36 43 -79 42 -122 -2z"/>
<path d="M2606 10416 c-20 -23 -36 -46 -36 -51 0 -4 -13 -24 -30 -45 -27 -34
-30 -45 -30 -107 0 -80 -13 -104 -71 -134 -50 -25 -56 -41 -35 -85 12 -27 16
-65 16 -163 0 -92 4 -139 15 -164 29 -69 10 -208 -36 -263 -20 -24 -17 -130 5
-172 14 -27 16 -60 14 -215 l-2 -182 33 -70 c31 -66 32 -74 26 -140 -18 -167
-16 -176 67 -329 9 -17 17 -38 18 -47 1 -35 -34 -110 -62 -134 l-31 -26 -22
21 c-19 18 -23 35 -29 128 -8 133 -27 206 -62 243 -48 50 -114 28 -114 -38 0
-13 -6 -23 -14 -23 -17 0 -30 85 -20 138 6 37 40 102 52 102 4 0 22 22 40 49
42 65 43 116 3 181 -26 43 -30 59 -33 147 -3 75 -10 114 -31 168 -31 81 -36
194 -12 260 21 59 19 144 -7 212 -17 45 -39 75 -98 134 -90 90 -123 103 -173
69 -30 -21 -97 -101 -97 -116 0 -3 -14 -24 -32 -47 -29 -36 -32 -47 -33 -106
l0 -66 -51 -25 c-94 -46 -99 -53 -97 -118 1 -31 9 -86 17 -122 9 -36 20 -130
25 -209 10 -162 3 -204 -33 -199 -37 5 -50 52 -47 170 2 119 -6 147 -59 192
-35 29 -75 34 -100 11 -9 -8 -27 -16 -39 -17 -19 -3 -26 4 -39 38 -14 37 -13
45 3 87 9 25 36 68 59 95 59 69 74 107 55 141 -23 41 -77 41 -137 0 -86 -58
-137 -86 -174 -93 -49 -9 -68 1 -68 34 0 27 10 38 106 120 16 14 52 44 79 68
74 65 109 79 216 90 143 14 148 18 212 165 10 21 17 60 17 87 0 39 -4 52 -22
64 -30 22 -66 20 -113 -5 -34 -18 -51 -20 -120 -15 l-80 6 -68 -65 c-38 -36
-76 -65 -86 -65 -25 0 -68 36 -87 71 -25 50 -83 107 -115 114 -46 10 -59 -7
-59 -80 0 -59 2 -65 39 -105 34 -37 40 -51 43 -98 1 -30 0 -58 -3 -63 -9 -15
-35 0 -48 27 -14 31 -31 22 -31 -15 0 -16 -9 -39 -20 -52 -19 -23 -20 -23 -34
-5 -16 20 -13 52 11 120 26 76 10 156 -48 237 -17 24 -27 30 -52 27 -33 -3
-38 -13 -52 -100 -7 -47 -25 -49 -79 -8 -22 17 -45 30 -52 30 -13 0 -44 -86
-44 -121 0 -10 8 -24 19 -31 44 -32 76 -164 48 -202 -13 -18 -15 -18 -70 -1
-55 17 -59 17 -107 -1 -27 -11 -50 -23 -51 -29 0 -5 23 -20 52 -31 29 -12 55
-26 57 -32 5 -15 -86 -40 -124 -35 -51 8 -56 -13 -21 -85 l31 -63 -19 -57
c-11 -31 -31 -77 -44 -102 -27 -50 -42 -121 -34 -161 3 -15 17 -40 32 -56 64
-70 76 -124 46 -196 -22 -52 -21 -223 1 -235 27 -15 64 -1 108 42 78 78 82 86
113 284 10 64 23 42 23 -42 0 -47 4 -88 10 -91 27 -17 80 46 90 105 5 32 8 35
43 38 20 2 37 1 37 -3 0 -3 -11 -28 -25 -55 -29 -57 -31 -86 -9 -111 23 -25
11 -49 -46 -89 -67 -48 -149 -163 -149 -210 0 -28 35 -119 64 -164 36 -56 66
-74 104 -59 27 10 32 7 71 -33 23 -24 46 -44 51 -44 5 0 9 -13 9 -28 0 -19
-11 -39 -33 -60 -49 -47 -80 -43 -147 19 -167 155 -242 212 -275 207 -17 -3
-21 -14 -28 -66 -14 -105 -8 -118 93 -205 50 -43 90 -84 90 -92 0 -10 -11 -15
-34 -15 -81 0 -176 -72 -176 -132 0 -25 13 -43 69 -97 44 -43 72 -78 76 -96
32 -155 38 -165 108 -165 40 0 77 -27 77 -57 0 -41 38 -103 73 -118 56 -23
120 -28 159 -12 88 37 144 29 132 -20 -11 -39 -64 -53 -204 -53 -150 0 -145 4
-134 -112 5 -59 11 -78 32 -100 14 -16 33 -28 42 -28 9 0 27 -11 39 -24 20
-21 22 -30 16 -83 -6 -47 -4 -61 9 -72 12 -10 16 -32 16 -97 0 -103 9 -114 88
-114 42 -1 67 -7 97 -25 112 -68 155 -71 217 -12 23 22 25 92 2 101 -8 3 -12
11 -9 16 8 13 48 -25 58 -54 12 -31 51 3 57 50 5 36 7 39 35 37 17 -1 42 -4
56 -8 34 -9 40 8 27 67 -21 90 8 115 142 127 58 5 65 8 68 29 2 14 -8 35 -27
57 -32 37 -48 103 -37 158 4 18 20 65 37 106 30 72 31 77 24 180 -4 63 -3 116
3 131 13 33 49 70 68 70 27 0 27 -31 -1 -102 -25 -64 -27 -74 -15 -107 16 -46
38 -71 62 -71 24 0 113 91 139 142 15 29 19 58 19 129 0 133 36 194 91 155 63
-44 75 -114 31 -180 -26 -39 -112 -209 -127 -251 -8 -24 -7 -206 1 -252 9 -49
42 -66 101 -52 131 32 235 78 286 127 58 56 110 152 128 239 12 62 34 89 82
102 51 15 88 4 112 -33 22 -34 23 -31 -175 -307 -25 -34 -47 -67 -50 -73 -3
-6 -18 -30 -33 -54 -33 -51 -28 -66 20 -57 52 9 88 -10 123 -66 16 -27 38 -49
47 -50 41 -3 67 4 123 32 56 28 110 38 110 21 0 -15 -106 -110 -155 -140 -91
-54 -147 -53 -216 4 -48 40 -64 42 -96 12 -27 -26 -75 -28 -101 -5 -10 10 -28
17 -40 17 -28 0 -92 -57 -132 -118 -27 -40 -31 -54 -27 -94 6 -73 -25 -108
-64 -72 -10 9 -35 16 -56 16 -33 0 -44 -7 -91 -58 -29 -33 -80 -87 -113 -121
l-60 -62 -120 2 -121 2 -24 -28 c-21 -25 -24 -38 -24 -112 0 -46 -4 -86 -9
-89 -15 -10 -80 96 -87 141 -11 70 -21 78 -82 62 -73 -18 -99 -62 -128 -209
-31 -161 -31 -151 20 -227 40 -59 46 -76 46 -120 0 -39 -6 -58 -28 -89 -54
-74 -42 -127 34 -152 36 -11 62 0 94 41 20 25 26 27 98 27 84 0 242 23 313 45
26 8 53 15 61 15 15 0 61 41 128 114 31 34 38 37 75 33 22 -3 72 -17 110 -31
55 -20 89 -26 160 -26 83 0 216 19 291 41 45 13 71 12 56 -3 -7 -7 -12 -37
-12 -66 0 -48 5 -60 35 -98 19 -23 35 -45 35 -48 0 -11 -35 -5 -54 9 -13 10
-44 15 -94 15 -65 0 -81 -4 -122 -29 -91 -56 -268 -91 -456 -91 -94 0 -142 -4
-167 -15 -63 -26 -102 -20 -133 20 -28 37 -54 44 -73 22 -8 -10 -1 -28 29 -74
30 -47 40 -72 42 -113 l3 -53 75 -2 c82 -1 118 -12 250 -75 112 -53 194 -119
266 -213 53 -70 57 -97 15 -97 -16 0 -34 7 -41 15 -7 8 -17 15 -22 15 -6 0
-27 13 -47 28 -20 16 -43 32 -51 35 -8 4 -28 16 -45 26 -16 11 -50 29 -75 41
-25 12 -53 26 -62 31 -57 30 -141 50 -199 47 -62 -3 -64 -4 -92 -46 -66 -99
-151 -84 -131 23 14 77 -68 108 -177 67 -84 -32 -94 -44 -95 -120 -1 -37 -8
-82 -15 -99 -11 -27 -11 -40 0 -75 13 -40 16 -88 10 -170 -2 -35 7 -59 46
-123 17 -28 25 -55 25 -90 0 -27 6 -61 13 -75 20 -41 83 -70 152 -70 42 -1 66
-6 80 -18 31 -26 85 -98 85 -113 0 -8 7 -23 15 -33 10 -13 15 -43 15 -84 0
-55 4 -69 28 -101 27 -35 55 -88 66 -123 7 -22 26 -23 73 -3 20 9 66 15 107
15 86 0 116 16 116 61 0 31 25 89 43 101 14 9 47 -9 47 -26 0 -7 10 -24 22
-38 23 -25 66 -41 146 -53 23 -4 42 -10 42 -14 0 -5 -15 -37 -34 -72 -27 -51
-39 -65 -60 -67 -14 -2 -26 1 -26 5 0 19 -64 73 -86 73 -28 0 -69 -17 -109
-46 -33 -24 -121 -64 -140 -64 -6 0 -22 -11 -35 -25 -24 -25 -24 -26 -7 -58
10 -18 44 -59 77 -91 33 -33 60 -68 60 -78 0 -44 91 -147 179 -202 46 -29 91
-106 91 -155 0 -19 -11 -43 -30 -65 -44 -50 -56 -90 -36 -121 18 -27 47 -33
64 -12 6 7 18 38 26 69 16 63 35 98 53 98 10 0 13 -23 13 -84 0 -76 2 -85 20
-91 31 -10 102 5 129 27 27 21 61 72 61 91 0 7 20 35 44 62 79 91 75 132 -25
237 -38 40 -69 77 -69 83 0 5 16 23 35 38 19 15 41 43 49 61 18 43 69 100 122
136 30 21 46 42 56 72 19 57 9 102 -44 205 -24 45 -40 85 -36 88 3 4 23 -4 45
-18 75 -48 114 -42 73 10 -26 33 -21 60 20 105 20 21 30 43 30 63 0 37 25 235
46 365 26 159 63 296 101 373 19 39 28 47 51 47 15 -1 38 -7 52 -15 14 -8 50
-14 81 -15 50 0 58 3 85 33 17 17 38 50 47 72 18 43 47 226 47 293 0 39 12 77
46 145 22 44 18 139 -8 188 -25 48 -27 82 -8 159 7 30 14 78 14 105 1 30 8 62
19 78 18 27 84 67 111 67 23 0 97 40 129 68 25 24 27 31 27 105 0 68 4 90 30
144 17 34 30 68 30 75 0 6 -12 41 -26 76 -23 59 -25 69 -14 108 7 24 19 49 26
55 18 14 18 59 1 84 -7 11 -19 40 -26 64 -19 64 -11 67 110 44 39 -7 76 21 84
64 3 19 24 61 46 93 44 65 48 94 19 147 -39 73 -21 113 52 113 25 0 42 8 64
31 43 46 86 61 150 53 81 -10 102 -1 125 54 11 25 26 50 32 54 18 11 63 10 91
-3 19 -9 32 -9 54 0 16 7 64 16 105 20 84 8 106 21 138 83 14 27 19 58 19 116
0 92 -12 110 -95 135 -177 53 -252 80 -329 118 -90 45 -103 53 -157 99 -140
119 -219 296 -219 491 0 74 -14 105 -33 75 -38 -58 -48 -66 -69 -55 -12 6 -32
24 -46 40 -20 25 -31 29 -73 29 -39 0 -54 -5 -82 -30 -19 -16 -42 -30 -50 -30
-18 0 -47 37 -47 60 0 9 -21 35 -46 58 l-46 41 61 80 c34 44 65 83 71 86 14 9
50 94 50 119 0 24 -23 102 -45 151 -7 17 -21 50 -31 75 -10 25 -24 52 -31 61
-7 8 -13 20 -13 26 0 6 -20 28 -44 49 -99 88 -155 134 -164 134 -23 0 -31 -35
-46 -190 -9 -91 -24 -189 -33 -218 -32 -102 -143 -170 -166 -102 -9 27 -3 46
39 120 34 59 38 162 8 203 -10 14 -25 27 -31 27 -25 0 -12 27 38 75 70 68 129
149 129 177 0 13 7 45 15 72 30 99 16 146 -79 265 -40 50 -54 77 -69 139 -10
42 -29 88 -41 101 -40 44 -93 71 -141 71 l-45 0 0 -53 c0 -44 -4 -58 -25 -77
-20 -18 -30 -22 -42 -14 -23 14 -52 92 -53 144 -1 44 -23 121 -49 170 -26 48
-53 70 -87 70 -26 0 -40 -8 -68 -44z"/>
<path d="M431 10104 c-25 -32 -26 -38 -5 -73 19 -32 51 -54 64 -46 17 10 11
64 -10 105 -11 22 -22 40 -24 40 -3 0 -14 -12 -25 -26z"/>
<path d="M426 9888 c-11 -17 -14 -35 -10 -56 9 -45 25 -55 60 -37 16 8 41 15
57 15 23 0 27 4 27 30 0 34 -29 58 -83 67 -30 4 -38 1 -51 -19z"/>
<path d="M3892 9053 c4 -35 37 -42 62 -14 24 26 13 41 -30 41 -33 0 -35 -2
-32 -27z"/>
<path d="M3980 8937 c-51 -18 -53 -51 -4 -72 68 -28 144 -10 144 35 0 36 -81
58 -140 37z"/>
<path d="M4330 8885 c-23 -24 -22 -55 2 -55 22 0 36 14 43 41 9 36 -17 44 -45
14z"/>
<path d="M3890 8819 c-8 -14 -9 -24 -2 -31 14 -14 32 -1 32 22 0 28 -17 33
-30 9z"/>
<path d="M3965 8760 c-3 -5 1 -10 9 -10 8 0 18 5 21 10 3 6 -1 10 -9 10 -8 0
-18 -4 -21 -10z"/>
<path d="M4529 8754 c-11 -14 -11 -18 6 -30 25 -19 40 -13 40 17 0 29 -26 37
-46 13z"/>
<path d="M4070 8715 c0 -43 25 -85 52 -85 28 0 68 30 68 50 0 11 -18 28 -46
44 -63 35 -74 34 -74 -9z"/>
<path d="M4183 8336 c-23 -20 -28 -32 -27 -70 1 -74 20 -86 126 -86 96 0 121
12 134 65 10 41 -17 70 -87 94 -81 27 -111 26 -146 -3z"/>
<path d="M7744 8294 c-35 -23 -61 -44 -154 -119 -13 -11 -47 -41 -74 -67 -46
-42 -50 -49 -41 -73 13 -34 55 -60 86 -52 13 4 38 19 54 35 69 65 182 158 207
171 23 12 32 12 60 1 18 -7 40 -18 48 -25 29 -22 91 -45 120 -45 32 0 70 33
70 61 0 10 -16 27 -36 40 -32 19 -45 21 -114 16 l-77 -6 -40 44 c-22 25 -47
45 -55 45 -8 0 -33 -12 -54 -26z"/>
<path d="M8142 8264 c-27 -19 -29 -54 -4 -54 23 0 42 19 42 41 0 26 -14 30
-38 13z"/>
<path d="M4490 8231 c0 -23 45 -61 72 -61 25 0 72 50 59 63 -7 7 -18 7 -34 0
-17 -8 -29 -7 -48 3 -34 19 -49 17 -49 -5z"/>
<path d="M47 8184 c-3 -4 -3 -35 0 -69 5 -60 4 -64 -21 -80 -22 -15 -26 -24
-25 -64 0 -27 8 -58 20 -76 10 -16 21 -37 25 -45 3 -8 11 -28 18 -45 34 -79
40 -108 46 -215 3 -63 11 -128 18 -143 16 -39 15 -110 -3 -154 -19 -44 -19
-77 -2 -92 8 -6 38 -15 67 -21 76 -14 78 -17 146 -175 17 -42 44 -134 44 -154
0 -9 6 -25 14 -36 7 -11 16 -39 20 -62 17 -121 18 -123 35 -122 9 0 30 8 46
18 27 16 30 23 33 74 2 33 -2 66 -10 79 -16 30 -37 122 -37 173 -1 23 8 58 21
81 21 40 21 43 4 69 -10 15 -41 38 -70 51 -55 25 -86 68 -86 120 0 40 -26 80
-72 111 -41 27 -43 31 -41 73 1 25 3 72 4 105 1 33 -1 79 -6 103 -6 32 -4 47
7 60 23 27 40 79 33 101 -3 12 -29 30 -61 45 -29 14 -54 26 -54 28 0 2 9 29
20 61 11 31 20 65 20 76 0 30 -28 84 -53 102 -24 18 -90 33 -100 23z"/>
<path d="M7840 8141 c0 -11 26 -22 34 -14 3 3 3 10 0 14 -7 12 -34 11 -34 0z"/>
<path d="M4776 8081 c-7 -11 31 -41 52 -41 8 0 12 9 10 23 -2 15 -11 23 -30
25 -14 2 -29 -1 -32 -7z"/>
<path d="M4495 7990 c-10 -16 14 -50 35 -50 26 0 27 36 1 50 -24 12 -28 13
-36 0z"/>
<path d="M4716 7985 c-11 -8 -30 -15 -41 -15 -23 0 -55 -28 -55 -48 0 -16 11
-15 62 4 70 26 108 48 108 61 0 18 -50 16 -74 -2z"/>
<path d="M7767 7993 c-15 -15 -6 -52 14 -58 11 -4 35 -20 54 -36 33 -29 34
-29 40 -9 10 31 -11 72 -46 93 -32 18 -51 21 -62 10z"/>
<path d="M6884 7793 c-10 -16 -18 -44 -17 -64 1 -43 48 -132 99 -185 28 -31
38 -35 61 -30 42 11 74 48 80 92 5 37 1 45 -50 108 -94 113 -137 133 -173 79z"/>
<path d="M4797 7265 c-21 -25 -43 -45 -49 -45 -5 0 -19 11 -30 25 -26 33 -48
32 -84 -6 -48 -50 -85 -67 -166 -77 -90 -11 -189 -56 -239 -108 l-33 -34 53
-50 c29 -28 58 -50 63 -50 15 0 76 -49 82 -67 4 -9 0 -26 -9 -39 -24 -37 -18
-62 30 -113 39 -42 45 -54 47 -97 2 -59 -34 -124 -88 -156 -43 -26 -35 -38 25
-38 36 0 58 7 87 27 52 35 134 63 186 63 51 0 114 27 147 64 30 32 47 33 114
1 60 -30 83 -24 109 28 32 64 40 97 65 273 4 30 -1 58 -17 100 -12 33 -26 84
-30 115 -16 116 -46 164 -133 209 -59 31 -86 26 -130 -25z"/>
<path d="M5335 6535 c-16 -8 -54 -38 -83 -68 l-54 -55 -45 14 c-61 18 -153 18
-222 -2 -31 -8 -81 -22 -111 -31 -123 -34 -192 -72 -259 -142 -93 -97 -103
-143 -44 -197 20 -19 41 -34 45 -34 5 0 21 -8 36 -19 15 -10 61 -40 102 -67
105 -68 119 -87 120 -154 0 -30 -6 -75 -14 -100 -18 -57 -36 -132 -46 -190 -5
-25 -13 -58 -19 -73 -6 -16 -11 -40 -11 -53 0 -25 -44 -121 -89 -194 -11 -19
-24 -42 -28 -50 -20 -44 -56 -78 -88 -84 -44 -9 -46 -33 -9 -106 26 -52 28
-86 9 -177 -8 -38 -3 -40 55 -17 40 16 42 16 64 -5 28 -26 37 -26 84 2 21 12
47 27 57 34 11 6 90 54 175 105 182 110 219 128 265 128 18 0 56 11 83 25 76
38 143 31 161 -17 8 -22 -20 -150 -38 -172 -4 -6 -11 -22 -14 -36 -3 -14 -15
-50 -27 -80 -12 -30 -26 -68 -30 -85 -5 -16 -20 -64 -33 -105 -29 -88 -58
-235 -50 -256 5 -13 34 21 56 66 23 46 88 142 118 175 16 16 29 33 29 36 0 9
102 85 150 111 23 13 49 28 59 33 53 30 154 145 181 205 32 73 88 139 172 206
l69 56 -25 42 -25 43 25 48 c28 55 30 101 9 195 -8 36 -14 93 -15 128 0 35 -5
72 -10 83 -13 23 -63 25 -100 4 -55 -31 -80 -20 -199 90 -59 55 -130 145 -149
188 -22 51 -12 126 26 194 9 15 12 57 10 124 l-3 100 -55 19 c-32 11 -65 30
-78 47 -65 78 -72 83 -115 82 -23 0 -55 -7 -72 -14z"/>
<path d="M5624 4460 c-23 -9 -38 -49 -28 -74 10 -25 50 -19 74 11 38 49 11 87
-46 63z"/>
<path d="M4890 4177 c0 -20 33 -47 58 -47 27 0 28 21 4 43 -22 20 -62 22 -62
4z"/>
<path d="M5495 4179 c-9 -13 27 -40 39 -29 12 12 0 40 -18 40 -8 0 -18 -5 -21
-11z"/>
<path d="M5421 4069 c-62 -33 -91 -57 -91 -76 0 -21 25 -16 80 17 73 43 110
72 104 82 -9 14 -37 7 -93 -23z"/>
<path d="M4960 3887 c0 -16 72 -87 88 -87 22 0 13 26 -20 57 -38 35 -68 48
-68 30z"/>
<path d="M4839 3781 l-23 -18 22 -28 c14 -18 20 -36 16 -49 -7 -25 -112 -126
-131 -126 -8 0 -16 -7 -19 -15 -4 -8 -12 -15 -20 -15 -8 0 -14 -9 -14 -20 0
-11 4 -20 8 -20 9 0 61 37 84 60 62 62 161 130 188 130 18 0 70 43 70 57 0 8
-11 25 -25 38 -20 20 -34 25 -78 25 -39 0 -62 -6 -78 -19z"/>
<path d="M6848 3123 c-33 -40 -149 -298 -165 -370 -11 -47 68 -126 81 -80 2 6
11 41 20 77 10 36 22 79 27 95 6 17 14 44 18 60 7 27 49 126 72 167 14 27 11
55 -7 62 -24 9 -30 8 -46 -11z"/>
<path d="M2283 2783 c-20 -7 -15 -75 6 -100 42 -50 97 -7 71 56 -12 29 -53 52
-77 44z"/>
<path d="M3433 320 c-31 -13 -50 -45 -68 -119 -14 -51 -14 -68 -5 -92 14 -32
79 -89 102 -89 8 0 19 -5 25 -11 5 -5 30 -9 54 -7 39 3 46 7 62 38 14 27 17
51 14 110 -5 85 -18 119 -56 148 -32 23 -97 35 -128 22z"/>
</g>
</svg>
